<svg width="16" height="16" viewBox="0 0 16 16" fill="none" xmlns="http://www.w3.org/2000/svg">
<g clip-path="url(#clip0_13440_16605)">
<path d="M9.00065 1.33337C9.00065 0.781089 8.55294 0.333374 8.00065 0.333374C7.44837 0.333374 7.00065 0.781089 7.00065 1.33337V7.00004H1.33398C0.7817 7.00004 0.333984 7.44776 0.333984 8.00004C0.333984 8.55233 0.7817 9.00004 1.33398 9.00004H7.00065V14.6667C7.00065 15.219 7.44837 15.6667 8.00065 15.6667C8.55294 15.6667 9.00065 15.219 9.00065 14.6667V9.00004H14.6673C15.2196 9.00004 15.6673 8.55233 15.6673 8.00004C15.6673 7.44776 15.2196 7.00004 14.6673 7.00004H9.00065V1.33337Z" fill="#FD6E00"/>
</g>
<defs>
<clipPath id="clip0_13440_16605">
<rect width="16" height="16" fill="white"/>
</clipPath>
</defs>
</svg>
