<svg width="20" height="20" viewBox="0 0 20 20" fill="none" xmlns="http://www.w3.org/2000/svg">
<path d="M14.9392 9.02374H5.08365L4.75746 11.3536H15.242L14.9392 9.02374ZM2.66053 16.6192L3.68571 9.02374H1.61207C1.30142 9.02374 1.05678 8.89946 0.878152 8.65096C0.699528 8.40245 0.649043 8.13059 0.726708 7.83549L2.05476 3.17567C2.11689 2.97375 2.22562 2.81066 2.38094 2.68639C2.53627 2.56213 2.72266 2.5 2.94012 2.5H17.0594C17.2768 2.5 17.4632 2.56213 17.6186 2.68639C17.7739 2.81066 17.8826 2.97375 17.9447 3.17567L19.2728 7.83549C19.3504 8.13059 19.3 8.40245 19.1213 8.65096C18.9427 8.89946 18.698 9.02374 18.3874 9.02374H16.3371L17.3623 16.6192C17.3933 16.8367 17.339 17.0231 17.1992 17.1784C17.0594 17.3337 16.8807 17.4114 16.6633 17.4114C16.4924 17.4114 16.3448 17.3532 16.2206 17.2367C16.0963 17.1202 16.0187 16.9765 15.9876 16.8056L15.4284 12.7516H4.57107L4.01189 16.8056C3.98081 16.9765 3.90313 17.1202 3.7789 17.2367C3.65462 17.3532 3.50705 17.4114 3.33621 17.4114C3.11875 17.4114 2.94401 17.3337 2.81198 17.1784C2.67995 17.0231 2.62947 16.8367 2.66053 16.6192Z" fill="#FD6E00"/>
</svg>
