<svg width="16" height="16" viewBox="0 0 16 16" fill="none" xmlns="http://www.w3.org/2000/svg">
<path d="M1.95177 3.22898C1.63858 3.22898 1.38477 3.51767 1.38477 3.87373C1.38477 4.22979 1.63858 4.51842 1.95177 4.51848H14.0477C14.3608 4.51848 14.6147 4.22979 14.6147 3.87373C14.6147 3.51767 14.3608 3.22898 14.0477 3.22898H12.1576C11.7686 3.21779 11.3573 2.9361 11.2249 2.51998C11.2214 2.50904 11.2174 2.49554 11.203 2.44654L11.1186 2.15867C11.0671 1.98217 11.0221 1.82835 10.9591 1.69092C10.7105 1.14792 10.2503 0.770854 9.71864 0.674291C9.58408 0.649854 9.44158 0.649916 9.27795 0.650041H6.72164C6.55802 0.649916 6.41545 0.649854 6.28089 0.674291C5.7492 0.770791 5.28908 1.14792 5.04045 1.69092C4.97774 1.82772 4.93293 1.98074 4.88155 2.15622L4.79645 2.44654C4.78214 2.49554 4.77814 2.50904 4.77464 2.51998C4.64227 2.9361 4.29902 3.21742 3.90995 3.22867L1.95177 3.22898Z" fill="#ED3241"/>
<path fill-rule="evenodd" clip-rule="evenodd" d="M8.29702 15.35H7.70252C5.65727 15.35 4.63458 15.35 3.96971 14.6989C3.30481 14.0478 3.23678 12.9798 3.10073 10.8437L2.90471 7.76536C2.83091 6.60647 2.79399 6.0267 3.12752 5.65949C3.46108 5.29224 4.0244 5.29224 5.15096 5.29224H10.8486C11.9751 5.29224 12.5385 5.29224 12.872 5.65949C13.2056 6.02674 13.1687 6.60624 13.0948 7.76536L12.8988 10.8434C12.7628 12.9795 12.6947 14.0478 12.0298 14.6989C11.365 15.35 10.3423 15.35 8.29702 15.35ZM6.10746 7.61899C6.4104 7.58711 6.68052 7.8198 6.71083 8.13861L7.07833 12.007C7.10858 12.3259 6.88758 12.6103 6.58458 12.6422C6.28171 12.674 6.01158 12.4414 5.98127 12.1225L5.61377 8.25411C5.58346 7.93524 5.80452 7.65086 6.10746 7.61899ZM10.3858 8.25411C10.4161 7.93524 10.1951 7.65086 9.89208 7.61899C9.58921 7.58711 9.31902 7.8198 9.28871 8.13861L8.92121 12.007C8.89096 12.3259 9.11196 12.6103 9.41496 12.6422C9.71783 12.674 9.98802 12.4414 10.0183 12.1225L10.3858 8.25411Z" fill="#ED3241"/>
</svg>
